<svg xmlns="http://www.w3.org/2000/svg" width="120" height="20" fill="none"><g fill="#FCC226"><path d="m10 0 2.245 6.91h7.266l-5.878 4.27 2.245 6.91L10 13.82l-5.878 4.27 2.245-6.91L.49 6.91h7.266L10 0ZM35 0l2.245 6.91h7.266l-5.878 4.27 2.245 6.91L35 13.82l-5.878 4.27 2.245-6.91-5.878-4.27h7.266L35 0ZM60 0l2.245 6.91h7.266l-5.878 4.27 2.245 6.91L60 13.82l-5.878 4.27 2.245-6.91-5.878-4.27h7.266L60 0ZM85 0l2.245 6.91h7.266l-5.878 4.27 2.245 6.91L85 13.82l-5.878 4.27 2.245-6.91-5.878-4.27h7.266L85 0ZM110 0l2.245 6.91h7.266l-5.878 4.27 2.245 6.91L110 13.82l-5.878 4.27 2.245-6.91-5.878-4.27h7.266L110 0Z"/></g></svg>