<svg xmlns="http://www.w3.org/2000/svg" width="147" height="35"><path d="M4.504.634h1.9v9.958s.387 5.339-3.94 5.339c0 0-1.865-.061-2.463-.765l.915-1.619s.527.517 1.583.517 2.031-.648 2.031-3.234V.748M17.11.329a7.801 7.801 0 0 0-7.801 7.802 7.8 7.8 0 1 0 15.602 0A7.8 7.8 0 0 0 17.11.329m0 13.736a5.935 5.935 0 1 1 0-11.87 5.935 5.935 0 0 1 0 11.87M37.545.705v5.981h-6.932V.705h-1.865v14.884h1.865V8.551h6.932v7.038h1.866V.705zM44.161 15.589V0L55.28 11.612V.704h1.901v15.518L46.06 4.505v11.084zM69.795 15.613V.741h7.221v1.797h-5.291v4.058h5.058v1.581h-5.091v7.436zM85.942 9.105c3.733-.519 3.604-4.156 3.604-4.156 0-4.417-4.969-4.208-4.969-4.208h-3.183v14.873h1.884V9.267h.747l4.384 6.346h2.272l-4.739-6.508zm-1.504-1.372H83.25v-5.3h1.164s3.318-.199 3.318 2.65c0 2.848-3.294 2.65-3.294 2.65M94.269.739h1.971v14.875h-1.971zM101.13.739h7.952V2.43h-6.087v4.151h5.911v1.715h-5.936v5.49h6.112v1.827h-7.952zM116.682.739h-3.342v14.875h3.554c.457 0 7.848-.271 7.848-7.625-.001-7.355-8.06-7.25-8.06-7.25m-.202 13.073h-1.214V2.411h1.057s6.544-.211 6.544 5.7c0 5.912-6.387 5.701-6.387 5.701M134.312.001l-7.108 15.612h2.04l1.725-3.789h6.722l1.688 3.789h2.076L134.312.001zm-2.569 10.028 2.587-5.876 2.551 5.876h-5.138zM.704 33.394v-5.146h-.66v5.753h2.323v-.607zM7.513 28.117a3.008 3.008 0 1 0 3.008 3.007 3.007 3.007 0 0 0-3.008-3.007m0 5.364a2.357 2.357 0 1 1-.003-4.713 2.357 2.357 0 0 1 .003 4.713M13.196 34.001v-6.024l4.539 4.713v-4.442h.58v6.007l-4.45-4.626v4.372zM22.908 28.24h-1.531v5.751h1.531s2.779-.07 2.779-2.877c0-2.803-2.779-2.874-2.779-2.874m-.071 5.154h-.792v-4.538h.827s2.147.123 2.147 2.259c0 2.138-2.182 2.279-2.182 2.279M31.102 28.117a3.008 3.008 0 1 0 0 6.015 3.008 3.008 0 1 0 0-6.015m0 5.364a2.357 2.357 0 1 1 0-4.713 2.357 2.357 0 1 1 0 4.713M36.842 34.001v-6.024l4.539 4.713v-4.442h.58v6.007l-4.45-4.626v4.372zM54.506 28.223h-1.337v5.786h.669v-2.463h.756s1.654-.035 1.654-1.706c0-1.672-1.742-1.617-1.742-1.617m-.035 2.637h-.633v-1.987h.686s1.038.035 1.038.994c0 .958-1.091.993-1.091.993M60.382 27.906l-2.744 6.103h.809l.739-1.635h2.358l.686 1.635h.774l-2.622-6.103zm-.967 3.851.906-2.251.959 2.251h-1.865zM66.875 31.423s1.495.158 1.495-1.565c0-1.725-1.706-1.637-1.706-1.637h-1.285v5.788h.704v-2.551h.141l1.707 2.551h.862l-1.918-2.586zm-.814-.537v-2.03h.594s1.082.053 1.082.949c0 0 .053 1.081-.99 1.081h-.686zM71.379 28.221h.686v5.788h-.686zM77.695 29.4l.546-.387s-.44-.881-1.567-.881c-1.125 0-1.671.898-1.671 1.443s.265 1.124 1.514 1.671c1.25.545 1.16.932 1.16 1.215 0 .281-.121 1.055-1.055 1.055-.933 0-1.231-1.125-1.231-1.125l-.651.264s.317 1.477 1.883 1.477 1.777-1.494 1.777-1.723-.019-1.109-1.25-1.637c-1.231-.526-1.46-.845-1.46-1.196s.387-.826 1.038-.826c.65 0 .967.65.967.65M89.554 34.001v-6.024l4.539 4.713v-4.442h.579v6.007l-4.45-4.626v4.372zM97.693 34.005v-5.767h3.046v.655h-2.366v1.685h2.243v.605h-2.243v2.222h2.366v.6zM105.334 34.345l-2.232-6.105h.808l1.424 4.22 1.865-4.591 1.865 4.558 1.497-4.187h.773l-2.27 6.105-1.846-4.626zM117.947 34.024v-2.505l-1.925-3.283h.855l1.421 2.521 1.421-2.521h.825l-1.895 3.285v2.503zM125.705 28.117a3.008 3.008 0 1 0 3.008 3.007 3.007 3.007 0 0 0-3.008-3.007m0 5.364a2.357 2.357 0 1 1-.001-4.711 2.357 2.357 0 0 1 .001 4.711M132.887 31.423s1.495.158 1.495-1.565c0-1.725-1.706-1.637-1.706-1.637h-1.285v5.788h.704v-2.551h.088l1.76 2.551h.862l-1.918-2.586zm-.814-.537v-2.03h.594s1.082.053 1.082.949c0 0 .053 1.081-.99 1.081h-.686zM137.329 34.009v-5.788h.674v2.417l2.383-2.359h.949l-2.743 2.72 2.841 3.01h-.975l-2.31-2.6h-.109v2.6zM.044 21.49h141.411v.553H.044zM145.135 12.523c.312 0 .619.08.917.241.299.161.532.391.699.69.166.3.249.612.249.937 0 .322-.082.631-.246.927a1.738 1.738 0 0 1-.69.691 1.882 1.882 0 0 1-.929.247c-.324 0-.634-.082-.93-.247a1.74 1.74 0 0 1-.691-.691 1.877 1.877 0 0 1-.247-.927c0-.325.083-.637.251-.937.167-.299.4-.529.699-.69.298-.16.603-.241.918-.241m0 .31c-.263 0-.518.067-.766.202a1.443 1.443 0 0 0-.583.576 1.558 1.558 0 0 0-.004 1.554c.138.247.33.438.577.576.247.137.507.206.775.206s.526-.069.774-.206a1.556 1.556 0 0 0 .572-2.13 1.43 1.43 0 0 0-.583-.576 1.564 1.564 0 0 0-.762-.202m-.82 2.59v-2.008h.69c.236 0 .407.018.512.055.106.037.19.102.252.195.063.092.095.19.095.294a.538.538 0 0 1-.156.383.626.626 0 0 1-.417.184.561.561 0 0 1 .17.106c.081.079.18.212.297.398l.245.394h-.396l-.178-.316c-.14-.249-.253-.405-.339-.468a.42.42 0 0 0-.26-.069h-.19v.854h-.325zm.325-1.131h.393c.188 0 .316-.028.386-.084a.277.277 0 0 0 .102-.223.27.27 0 0 0-.049-.159.305.305 0 0 0-.137-.106 1.032 1.032 0 0 0-.325-.034h-.369v.606z"/></svg>