<svg xmlns="http://www.w3.org/2000/svg" xmlns:xlink="http://www.w3.org/1999/xlink" width="147px" height="35px" viewBox="0 0 147 35">
	<path  d="M4.504,0.634h1.9v9.958c0,0,0.387,5.339-3.94,5.339c0,0-1.865-0.061-2.463-0.765l0.915-1.619c0,0,0.527,0.517,1.583,0.517S4.53,13.416,4.53,10.83V0.748"/>
	<path  d="M17.11,0.329c-4.309,0-7.801,3.493-7.801,7.802c0,4.309,3.493,7.801,7.801,7.801c4.309,0,7.801-3.492,7.801-7.801C24.911,3.821,21.419,0.329,17.11,0.329 M17.11,14.065c-3.277,0-5.935-2.657-5.935-5.935c0-3.278,2.657-5.935,5.935-5.935c3.278,0,5.935,2.656,5.935,5.935C23.044,11.408,20.388,14.065,17.11,14.065"/>
	<polygon  points="37.545,0.705 37.545,6.686 30.613,6.686 30.613,0.705 28.748,0.705 28.748,15.589 30.613,15.589 30.613,8.551 37.545,8.551 37.545,15.589 39.411,15.589 39.411,0.705"/>
	<polygon  points="44.161,15.589 44.161,0 55.28,11.612 55.28,0.704 57.181,0.704 57.181,16.222 46.06,4.505 46.06,15.589"/>
	<polygon  points="69.795,15.613 69.795,0.741 77.016,0.741 77.016,2.538 71.725,2.538 71.725,6.596 76.783,6.596 76.783,8.177 71.692,8.177 71.692,15.613"/>
	<path  d="M85.942,9.105c3.733-0.519,3.604-4.156,3.604-4.156c0-4.417-4.969-4.208-4.969-4.208h-3.183v14.873h1.884V9.267h0.747l4.384,6.346h2.272L85.942,9.105z M84.438,7.733H83.25v-5.3h1.164c0,0,3.318-0.199,3.318,2.65C87.732,7.931,84.438,7.733,84.438,7.733"/>
	<rect x="94.269" y="0.739"  width="1.971" height="14.875"/>
	<polygon  points="101.13,0.739 109.082,0.739 109.082,2.43 102.995,2.43 102.995,6.581 108.906,6.581 108.906,8.296 102.97,8.296 102.97,13.786 109.082,13.786 109.082,15.613 101.13,15.613"/>
	<path  d="M116.682,0.739h-3.342v14.875h3.554c0.457,0,7.848-0.271,7.848-7.625C124.741,0.634,116.682,0.739,116.682,0.739 M116.48,13.812h-1.214V2.411h1.057c0,0,6.544-0.211,6.544,5.7C122.867,14.023,116.48,13.812,116.48,13.812"/>
	<path  d="M134.312,0.001l-7.108,15.612h2.04l1.725-3.789h6.722l1.688,3.789h2.076L134.312,0.001z M131.743,10.029l2.587-5.876l2.551,5.876H131.743z"/>
	<polygon  points="0.704,33.394 0.704,28.248 0.044,28.248 0.044,34.001 0.598,34.001 0.704,34.001 2.367,34.001 2.367,33.394"/>
	<path  d="M7.513,28.117c-1.662,0-3.009,1.346-3.009,3.007c0,1.662,1.347,3.008,3.009,3.008s3.008-1.346,3.008-3.008C10.521,29.463,9.175,28.117,7.513,28.117 M7.513,33.481c-1.302,0-2.358-1.057-2.358-2.357c0-1.302,1.056-2.356,2.358-2.356c1.302,0,2.357,1.055,2.357,2.356C9.87,32.425,8.814,33.481,7.513,33.481"/>
	<polygon  points="13.196,34.001 13.196,27.977 17.735,32.69 17.735,28.248 18.315,28.248 18.315,34.255 13.865,29.629 13.865,34.001"/>
	<path  d="M22.908,28.24h-1.531v5.751h1.531c0,0,2.779-0.07,2.779-2.877C25.687,28.311,22.908,28.24,22.908,28.24 M22.837,33.394h-0.792v-4.538h0.827c0,0,2.147,0.123,2.147,2.259C25.019,33.253,22.837,33.394,22.837,33.394"/>
	<path  d="M31.102,28.117c-1.662,0-3.009,1.346-3.009,3.007c0,1.662,1.347,3.008,3.009,3.008c1.662,0,3.009-1.346,3.009-3.008C34.11,29.463,32.764,28.117,31.102,28.117 M31.102,33.481c-1.302,0-2.358-1.057-2.358-2.357c0-1.302,1.056-2.356,2.358-2.356c1.302,0,2.358,1.055,2.358,2.356C33.459,32.425,32.404,33.481,31.102,33.481"/>
	<polygon  points="36.842,34.001 36.842,27.977 41.381,32.69 41.381,28.248 41.961,28.248 41.961,34.255 37.511,29.629 37.511,34.001"/>
	<path  d="M54.506,28.223h-1.337v5.786h0.669v-2.463h0.756c0,0,1.654-0.035,1.654-1.706C56.248,28.168,54.506,28.223,54.506,28.223 M54.471,30.86h-0.633v-1.987h0.686c0,0,1.038,0.035,1.038,0.994C55.562,30.825,54.471,30.86,54.471,30.86"/>
	<path  d="M60.382,27.906l-2.744,6.103h0.809l0.739-1.635h2.358l0.686,1.635h0.774L60.382,27.906z M59.415,31.757l0.906-2.251l0.959,2.251H59.415z"/>
	<path  d="M66.875,31.423c0,0,1.495,0.158,1.495-1.565c0-1.725-1.706-1.637-1.706-1.637h-1.285v5.788h0.704v-2.551h0.141l1.707,2.551h0.862L66.875,31.423z M66.061,30.886v-2.03h0.594c0,0,1.082,0.053,1.082,0.949c0,0,0.053,1.081-0.99,1.081H66.061z"/>
	<rect x="71.379" y="28.221"  width="0.686" height="5.788"/>
	<path  d="M77.695,29.4l0.546-0.387c0,0-0.44-0.881-1.567-0.881c-1.125,0-1.671,0.898-1.671,1.443s0.265,1.124,1.514,1.671c1.25,0.545,1.16,0.932,1.16,1.215c0,0.281-0.121,1.055-1.055,1.055c-0.933,0-1.231-1.125-1.231-1.125l-0.651,0.264c0,0,0.317,1.477,1.883,1.477c1.566,0,1.777-1.494,1.777-1.723s-0.019-1.109-1.25-1.637c-1.231-0.526-1.46-0.845-1.46-1.196s0.387-0.826,1.038-0.826C77.378,28.75,77.695,29.4,77.695,29.4"/>
	<polygon  points="89.554,34.001 89.554,27.977 94.093,32.69 94.093,28.248 94.672,28.248 94.672,34.255 90.222,29.629 90.222,34.001"/>
	<polygon  points="97.693,34.005 97.693,28.238 100.739,28.238 100.739,28.893 98.373,28.893 98.373,30.578 100.616,30.578 100.616,31.183 98.373,31.183 98.373,33.405 100.739,33.405 100.739,34.005"/>
	<polygon  points="105.334,34.345 103.102,28.24 103.91,28.24 105.334,32.46 107.199,27.869 109.064,32.427 110.561,28.24 111.334,28.24 109.064,34.345 107.218,29.719"/>
	<polygon  points="117.947,34.024 117.947,31.519 116.022,28.236 116.877,28.236 118.298,30.757 119.719,28.236 120.544,28.236 118.649,31.521 118.649,34.024"/>
	<path  d="M125.705,28.117c-1.662,0-3.009,1.346-3.009,3.007c0,1.662,1.347,3.008,3.009,3.008s3.008-1.346,3.008-3.008C128.713,29.463,127.367,28.117,125.705,28.117 M125.705,33.481c-1.302,0-2.358-1.057-2.358-2.357c0-1.302,1.057-2.356,2.358-2.356s2.358,1.055,2.358,2.356C128.063,32.425,127.007,33.481,125.705,33.481"/>
	<path  d="M132.887,31.423c0,0,1.495,0.158,1.495-1.565c0-1.725-1.706-1.637-1.706-1.637h-1.285v5.788h0.704v-2.551h0.088l1.76,2.551h0.862L132.887,31.423z M132.073,30.886v-2.03h0.594c0,0,1.082,0.053,1.082,0.949c0,0,0.053,1.081-0.99,1.081H132.073z"/>
	<polygon  points="137.329,34.009 137.329,28.221 138.003,28.221 138.003,30.638 140.386,28.279 141.335,28.279 138.592,30.999 141.433,34.009 140.458,34.009 138.148,31.409 138.039,31.409 138.039,34.009"/>
	<rect x="0.044" y="21.49"  width="141.411" height="0.553"/>
	<path  d="M145.135,12.523c0.312,0,0.619,0.08,0.917,0.241c0.299,0.161,0.532,0.391,0.699,0.69c0.166,0.3,0.249,0.612,0.249,0.937c0,0.322-0.082,0.631-0.246,0.927c-0.164,0.297-0.395,0.527-0.69,0.691c-0.297,0.165-0.605,0.247-0.929,0.247c-0.324,0-0.634-0.082-0.93-0.247c-0.296-0.164-0.526-0.394-0.691-0.691c-0.165-0.296-0.247-0.605-0.247-0.927c0-0.325,0.083-0.637,0.251-0.937c0.167-0.299,0.4-0.529,0.699-0.69C144.515,12.604,144.82,12.523,145.135,12.523 M145.135,12.833c-0.263,0-0.518,0.067-0.766,0.202c-0.248,0.134-0.443,0.326-0.583,0.576c-0.141,0.25-0.21,0.51-0.21,0.781c0,0.269,0.068,0.527,0.206,0.773c0.138,0.247,0.33,0.438,0.577,0.576c0.247,0.137,0.507,0.206,0.775,0.206c0.268,0,0.526-0.069,0.774-0.206c0.246-0.138,0.438-0.33,0.576-0.576c0.138-0.246,0.205-0.504,0.205-0.773c0-0.271-0.069-0.531-0.209-0.781c-0.139-0.25-0.334-0.442-0.583-0.576C145.649,12.899,145.395,12.833,145.135,12.833 M144.315,15.423v-2.008h0.69c0.236,0,0.407,0.018,0.512,0.055c0.106,0.037,0.19,0.102,0.252,0.195c0.063,0.092,0.095,0.19,0.095,0.294c0,0.147-0.053,0.275-0.156,0.383c-0.105,0.109-0.244,0.17-0.417,0.184c0.069,0.029,0.127,0.065,0.17,0.106c0.081,0.079,0.18,0.212,0.297,0.398l0.245,0.394h-0.396l-0.178-0.316c-0.14-0.249-0.253-0.405-0.339-0.468c-0.06-0.046-0.146-0.069-0.26-0.069h-0.19v0.854H144.315z M144.64,14.292h0.393c0.188,0,0.316-0.028,0.386-0.084c0.067-0.056,0.102-0.13,0.102-0.223c0-0.059-0.016-0.112-0.049-0.159c-0.033-0.047-0.079-0.082-0.137-0.106c-0.06-0.023-0.167-0.034-0.325-0.034h-0.369V14.292z"/>
</svg>