<svg width="131" height="35" fill="none" xmlns="http://www.w3.org/2000/svg"><path d="M81.674 5.016c5.869 0 10.541 4.667 10.541 10.53 0 5.862-4.672 10.52-10.54 10.52-5.87 0-10.542-4.658-10.542-10.52 0-5.863 4.672-10.53 10.541-10.53Zm0 16.593c3.293 0 5.886-2.643 5.886-6.072 0-3.428-2.602-6.072-5.886-6.072-3.284 0-5.886 2.644-5.886 6.072 0 3.437 2.594 6.072 5.886 6.072ZM57.02 5.007c-5.275 0-9.956 3.542-9.956 11.743V35h4.89V23.31c1.616 2.338 4.542 2.879 5.913 2.879 4.812 0 9.869-3.516 9.869-10.39 0-5.27-3.537-10.792-10.716-10.792Zm.576 16.707c-3.292 0-5.886-2.635-5.886-6.063 0-3.429 2.603-6.072 5.886-6.072 3.302 0 5.887 2.643 5.887 6.071.008 3.438-2.585 6.064-5.887 6.064Zm-25.1-16.776c-7.056 0-10.637 5.679-10.637 10.983 0 6.613 5.511 10.268 9.694 10.268 1.607 0 4.795-.436 6.454-3.027V25.9h4.708v-9.03c-.009-10.11-6.34-11.933-10.218-11.933Zm-.165 16.67c-3.293 0-5.887-2.642-5.887-6.07 0-3.43 2.603-6.073 5.887-6.073 3.301 0 5.886 2.644 5.886 6.072 0 3.437-2.594 6.072-5.886 6.072Zm80.469-5.024c0 3.202-.166 6.534-4.087 8.724-1.354.759-2.874 1.099-4.393 1.099-1.52 0-3.04-.34-4.393-1.1-3.922-2.189-4.087-5.521-4.087-8.767V5.41h4.96v11.803c0 1.309.079 3.053 1.555 3.943.463.297 1.414.419 1.965.419.55 0 1.458-.122 1.921-.419 1.476-.89 1.563-2.634 1.563-3.943V5.41h4.996v11.175ZM10.97 10.032l.951-.95L20.532 0H13.65L5.607 8.584V0H0v25.875h5.642V15.729l.017-.698 1.494-1.422c6.043 4.249 6.253 12.292 6.253 12.292h5.318c-.262-10.974-7.755-15.869-7.755-15.869Zm114.904.559c-.568-.969-1.424-1.841-2.385-1.841-.628 0-1.624.558-1.624 1.535 0 1.257 1.38 1.78 2.786 2.46 2.288 1.065 3.249 1.64 3.877 2.077 2.088 1.509 2.472 3.35 2.472 4.693 0 3.882-3.249 6.787-7.467 6.787-.672 0-5.24-.148-7.083-5.033l3.756-1.728c.655 1.265 1.807 2.652 3.606 2.652 1.45 0 2.524-.907 2.524-2.215 0-1.5-1.397-2.19-2.366-2.679-2.035-.968-3.005-1.3-4.061-1.98-1.703-1.117-2.568-2.521-2.568-4.45 0-3.872 3.004-6.106 6.541-6.106 3.005 0 4.9 1.893 5.817 4.022l-3.825 1.806Z" fill="#000"/></svg>