<svg xmlns="http://www.w3.org/2000/svg" width="496" height="175" fill="none"><path d="M0 53.583c0-15.291 5.127-28.041 15.382-38.25C25.637 5.125 38.948 0 55.313 0 71.68 0 84.718 4.875 95.077 14.646c10.36 9.77 15.529 22.75 15.529 38.916 0 16.167-5.232 28.417-15.675 38.48-10.465 10.062-23.67 15.104-39.618 15.104-15.947 0-29.404-4.875-39.763-14.646C5.17 82.73 0 69.75 0 53.583Zm25.281 0c0 8.875 2.93 16.334 8.77 22.355 5.838 6.02 12.933 9.02 21.262 9.02 9.523 0 16.89-2.937 22.142-8.812 5.254-5.875 7.87-13.396 7.87-22.563 0-9.166-2.868-16.812-8.623-22.645-5.755-5.813-12.892-8.73-21.41-8.73-8.517 0-15.905 2.875-21.556 8.667-5.65 5.792-8.476 13.354-8.476 22.708h.021ZM144.656 105.375V1.771h23.796v81.395h42.379v22.209h-66.175ZM240.236 105.375V1.771h23.796v81.395h42.38v22.209h-66.176ZM337.469 105.375V1.771h23.795v103.604h-23.795ZM494.913 105.375h-19.024L426.54 43.229v62.146h-22.31V1.771h19.024l49.349 62.458V1.77h22.31v103.604ZM17.872 172.895h-3.557v-29.166c.523 0 1.778 0 3.746-.042 1.967-.021 3.264-.041 3.913-.041 3.851 0 6.613.854 8.309 2.562 1.695 1.708 2.532 3.875 2.532 6.479s-.92 4.729-2.742 6.5c-1.82 1.771-4.436 2.667-7.806 2.667-1.611 0-3.076-.063-4.395-.167v11.208Zm4.437-25.916c-1.11 0-2.595.021-4.437.083v11.25a46.9 46.9 0 0 0 4.27.209c2.155 0 3.83-.521 5.064-1.563 1.235-1.042 1.842-2.479 1.842-4.312 0-1.834-.565-3.167-1.674-4.167-1.11-1-2.805-1.5-5.065-1.5ZM58.347 172.895h-3.558v-29.166c.607 0 2.03 0 4.228-.042 2.197-.021 3.41-.041 3.641-.041 6.948 0 10.422 2.895 10.422 8.666 0 2.146-.627 3.938-1.862 5.396-1.235 1.458-2.742 2.417-4.5 2.854l9.753 12.333h-4.353l-9-11.666h-4.771v11.666Zm4.102-25.916c-.9 0-2.26.021-4.102.083v10.834h4.311c1.779 0 3.349-.5 4.667-1.521 1.319-1.021 1.988-2.354 1.988-4.021 0-3.583-2.28-5.375-6.864-5.375ZM93.76 158.312c0-4.25 1.402-7.812 4.227-10.687 2.826-2.875 6.383-4.313 10.716-4.313 4.332 0 7.869 1.396 10.694 4.209 2.825 2.812 4.248 6.396 4.248 10.791 0 4.396-1.423 7.875-4.269 10.73-2.846 2.854-6.404 4.271-10.673 4.271-4.27 0-7.869-1.396-10.695-4.209-2.825-2.812-4.248-6.396-4.248-10.792Zm3.767 0c0 3.313 1.067 6.084 3.223 8.313 2.155 2.229 4.792 3.354 7.953 3.354 3.16 0 5.985-1.104 8.057-3.333s3.118-5 3.118-8.334c0-3.333-1.067-6.145-3.223-8.354-2.155-2.208-4.792-3.312-7.952-3.312-3.161 0-5.881 1.104-7.995 3.292-2.114 2.187-3.181 4.979-3.181 8.374ZM145.619 172.896v-29.167h16.533v3.334h-12.975v10.333h11.72v3.333h-11.72v12.167h-3.558ZM183.666 172.896v-29.167h16.533v3.334h-12.975v9.416h11.72v3.334h-11.72v9.75h13.394v3.333h-16.952ZM235.882 165.438c0-.98-.272-1.813-.795-2.542-.524-.729-1.214-1.313-2.051-1.771a26.817 26.817 0 0 0-2.784-1.313 64.633 64.633 0 0 1-3.055-1.354 17.067 17.067 0 0 1-2.784-1.646c-.837-.604-1.527-1.416-2.051-2.416-.523-1-.795-2.146-.795-3.459 0-2.166.795-3.979 2.386-5.437 1.59-1.458 3.746-2.188 6.446-2.188 1.674 0 3.223.271 4.667.834 1.444.562 2.574 1.291 3.411 2.208l-1.925 2.667c-1.591-1.584-3.579-2.375-5.944-2.375-1.611 0-2.909.396-3.851 1.166-.942.771-1.423 1.813-1.423 3.125 0 .98.272 1.813.795 2.542a5.776 5.776 0 0 0 2.051 1.75c.837.438 1.758.875 2.784 1.271 1.025.396 2.03.833 3.055 1.312 1.026.48 1.947 1 2.784 1.605.837.604 1.528 1.416 2.051 2.437.523 1.021.795 2.208.795 3.542 0 2.354-.921 4.271-2.742 5.729-1.82 1.458-4.101 2.188-6.801 2.188-1.905 0-3.746-.396-5.525-1.188-1.779-.792-3.035-1.854-3.726-3.188l2.051-2.416c.838 1.083 1.926 1.937 3.265 2.542 1.34.604 2.658.916 3.977.916 1.611 0 2.971-.396 4.081-1.208 1.109-.813 1.653-1.917 1.653-3.333ZM274.329 165.438c0-.98-.272-1.813-.795-2.542-.523-.729-1.214-1.313-2.051-1.771a26.894 26.894 0 0 0-2.783-1.313 64.213 64.213 0 0 1-3.056-1.354 17.099 17.099 0 0 1-2.783-1.646c-.838-.604-1.528-1.416-2.051-2.416-.524-1-.796-2.146-.796-3.459 0-2.166.796-3.979 2.386-5.437 1.591-1.458 3.746-2.188 6.446-2.188 1.674 0 3.223.271 4.667.834 1.444.562 2.574 1.291 3.411 2.208l-1.925 2.667c-1.591-1.584-3.579-2.375-5.944-2.375-1.611 0-2.909.396-3.85 1.166-.942.771-1.424 1.813-1.424 3.125 0 .98.272 1.813.796 2.542.523.729 1.214 1.313 2.051 1.75.837.438 1.758.875 2.783 1.271 1.026.396 2.03.833 3.056 1.312 1.025.48 1.946 1 2.783 1.605.837.604 1.528 1.416 2.051 2.437.523 1.021.795 2.208.795 3.542 0 2.354-.921 4.271-2.741 5.729-1.821 1.458-4.102 2.188-6.802 2.188-1.904 0-3.746-.396-5.525-1.188-1.779-.792-3.035-1.854-3.725-3.188l2.051-2.416c.837 1.083 1.925 1.937 3.265 2.542 1.339.604 2.657.916 3.976.916 1.611 0 2.972-.396 4.081-1.208 1.109-.813 1.653-1.917 1.653-3.333ZM300.928 172.896v-29.167h3.558v29.167h-3.558ZM327.299 158.312c0-4.25 1.402-7.812 4.227-10.687 2.826-2.875 6.383-4.313 10.716-4.313 4.332 0 7.869 1.396 10.694 4.209 2.825 2.812 4.248 6.396 4.248 10.791 0 4.396-1.423 7.875-4.269 10.73-2.846 2.854-6.404 4.271-10.673 4.271-4.27 0-7.869-1.396-10.695-4.209-2.825-2.812-4.248-6.396-4.248-10.792Zm3.767 0c0 3.313 1.067 6.084 3.223 8.313 2.155 2.229 4.792 3.354 7.953 3.354 3.16 0 5.985-1.104 8.057-3.333s3.118-5 3.118-8.334c0-3.333-1.067-6.145-3.223-8.354-2.155-2.208-4.792-3.312-7.952-3.312-3.161 0-5.881 1.104-7.995 3.292-2.114 2.187-3.181 4.979-3.181 8.374ZM403.603 172.896h-2.846l-18.291-22.917v22.917h-3.349v-29.167h2.846l18.292 23v-23h3.348v29.167ZM424.072 172.896l12.599-29.334h3.056l12.598 29.334h-3.809l-3.767-8.834h-13.352l-3.725 8.834h-3.6Zm14.022-24.625-5.274 12.458h10.548l-5.274-12.458ZM472.916 172.896v-29.167h3.558v25.834h14.44v3.333h-17.998Z" fill="#141414"/></svg>